HIERARCHY
ROOT Hips
{
	OFFSET 0.00000 0.00000 0.00000
	CHANNELS 6 Xposition Yposition Zposition Zrotation Yrotation Xrotation 
	JOINT LHipJoint
	{
		OFFSET 0 0 0
		CHANNELS 3 Zrotation Yrotation Xrotation
		JOINT LeftUpLeg
		{
			OFFSET 1.38280 -1.96574 0.54427
			CHANNELS 3 Zrotation Yrotation Xrotation
			JOINT LeftLeg
			{
				OFFSET 2.72096 -7.47578 0.00000
				CHANNELS 3 Zrotation Yrotation Xrotation
				JOINT LeftFoot
				{
					OFFSET 2.73041 -7.50176 0.00000
					CHANNELS 3 Zrotation Yrotation Xrotation
					JOINT LeftToeBase
					{
						OFFSET 0.16150 -0.44371 2.18031
						CHANNELS 3 Zrotation Yrotation Xrotation
						End Site
						{
							OFFSET 0.00000 -0.00000 1.12127
						}
					}
				}
			}
		}
	}
	JOINT RHipJoint
	{
		OFFSET 0 0 0
		CHANNELS 3 Zrotation Yrotation Xrotation
		JOINT RightUpLeg
		{
			OFFSET -1.57224 -1.96575 0.54427
			CHANNELS 3 Zrotation Yrotation Xrotation
			JOINT RightLeg
			{
				OFFSET -2.95935 -8.13076 0.00000
				CHANNELS 3 Zrotation Yrotation Xrotation
				JOINT RightFoot
				{
					OFFSET -2.52345 -6.93311 0.00000
					CHANNELS 3 Zrotation Yrotation Xrotation
					JOINT RightToeBase
					{
						OFFSET -0.04475 -0.10171 1.86688
						CHANNELS 3 Zrotation Yrotation Xrotation
						End Site
						{
							OFFSET -0.00000 -0.00000 0.95157
						}
					}
				}
			}
		}
	}
	JOINT LowerBack
	{
		OFFSET 0 0 0
		CHANNELS 3 Zrotation Yrotation Xrotation
		JOINT Spine
		{
			OFFSET 0.00669 2.07367 0.09104
			CHANNELS 3 Zrotation Yrotation Xrotation
			JOINT Spine1
			{
				OFFSET -0.00664 2.06198 -0.04732
				CHANNELS 3 Zrotation Yrotation Xrotation
				JOINT Neck
				{
					OFFSET 0 0 0
					CHANNELS 3 Zrotation Yrotation Xrotation
					JOINT Neck1
					{
						OFFSET -0.00021 1.49948 0.16345
						CHANNELS 3 Zrotation Yrotation Xrotation
						JOINT Head
						{
							OFFSET 0.06080 1.50567 -0.26702
							CHANNELS 3 Zrotation Yrotation Xrotation
							End Site
							{
								OFFSET 0.01726 1.56470 -0.11854
							}
						}
					}
				}
				JOINT LeftShoulder
				{
					OFFSET 0 0 0
					CHANNELS 3 Zrotation Yrotation Xrotation
					JOINT LeftArm
					{
						OFFSET 3.14993 0.82932 -0.22488
						CHANNELS 3 Zrotation Yrotation Xrotation
						JOINT LeftForeArm
						{
							OFFSET 5.68236 -0.00000 -0.00000
							CHANNELS 3 Zrotation Yrotation Xrotation
							JOINT LeftHand
							{
								OFFSET 3.17112 -0.00000 0.00000
								CHANNELS 3 Zrotation Yrotation Xrotation
								JOINT LeftFingerBase
								{
									OFFSET 0 0 0
									CHANNELS 3 Zrotation Yrotation Xrotation
									JOINT LeftHandIndex1
									{
										OFFSET 0.63269 -0.00000 0.00000
										CHANNELS 3 Zrotation Yrotation Xrotation
										End Site
										{
											OFFSET 0.51009 -0.00000 0.00000
										}
									}
								}
								JOINT LThumb
								{
									OFFSET 0 0 0
									CHANNELS 3 Zrotation Yrotation Xrotation
									End Site
									{
										OFFSET 0.51788 -0.00000 0.51788
									}
								}
							}
						}
					}
				}
				JOINT RightShoulder
				{
					OFFSET 0 0 0
					CHANNELS 3 Zrotation Yrotation Xrotation
					JOINT RightArm
					{
						OFFSET -3.10571 0.91279 -0.33334
						CHANNELS 3 Zrotation Yrotation Xrotation
						JOINT RightForeArm
						{
							OFFSET -5.87120 -0.00000 -0.00000
							CHANNELS 3 Zrotation Yrotation Xrotation
							JOINT RightHand
							{
								OFFSET -3.37589 -0.00000 0.00000
								CHANNELS 3 Zrotation Yrotation Xrotation
								JOINT RightFingerBase
								{
									OFFSET 0 0 0
									CHANNELS 3 Zrotation Yrotation Xrotation
									JOINT RightHandIndex1
									{
										OFFSET -0.60326 -0.00000 0.00000
										CHANNELS 3 Zrotation Yrotation Xrotation
										End Site
										{
											OFFSET -0.48636 -0.00000 0.00000
										}
									}
								}
								JOINT RThumb
								{
									OFFSET 0 0 0
									CHANNELS 3 Zrotation Yrotation Xrotation
									End Site
									{
										OFFSET -0.49379 -0.00000 0.49379
									}
								}
							}
						}
					}
				}
			}
		}
	}
}
MOTION
Frames: 11
Frame Time: 0.0357143
0.00 0.00 0.00 386.6550 256.5940 -375.9770 0.0000 0.0000 0.0000 -11.7725 -6.3299 -20.1598 2.7458 10.2717 29.8611 3.6490 2.0294 -36.9341 0.0179 0.8634 2.3729 0.0000 0.0000 0.0000 22.8392 16.0874 -16.7306 -1.2613 -7.1192 20.0691 -0.1228 -1.8670 6.2322 -6.2819 -14.6961 46.1030 -1.2997 2.0326 -7.7746 -2.4438 3.0035 3.2911 -1.4135 1.4537 7.9040 5.8070 1.1013 -13.1903 1.6449 -0.7833 24.2703 -0.5347 0.1645 9.9016 0.0000 -0.0000 0.0000 -79.4450 1.6081 38.0984 27.7605 -38.8948 -9.9730 -0.0000 0.0000 -23.6220 19.9140 36.6274 12.1960 -7.1250 0.0000 -0.0000 -19.2522 67.3806 -10.5238 0.0000 -0.0000 0.0000 -44.8907 53.3751 -49.9242 -38.4248 47.1085 -17.2762 0.0000 -0.0000 -16.3054 -13.4449 18.8540 -4.4176 7.1250 -0.0000 -0.0000 9.5846 -10.8421 7.7222
0.00 0.00 0.00 1216.5700 267.3040 -1206.2700 0.0000 0.0000 0.0000 -17.4087 -8.6851 -13.5031 2.0551 8.9799 25.7324 2.4312 0.1372 -29.5961 0.1446 -2.4502 -6.7516 0.0000 0.0000 0.0000 19.1324 15.0910 -9.0855 -1.4188 -7.5328 21.3039 0.0379 12.2446 -8.0638 -5.2257 -13.6335 41.7887 3.2381 2.2017 -17.7003 -0.0517 2.1917 -0.7258 -1.3437 1.1577 9.2867 -3.6898 -0.7363 4.9516 1.1206 -2.9885 31.2347 0.7570 -2.3542 9.0796 -0.0000 -0.0000 0.0000 -66.7298 18.5695 -64.6933 37.5760 -46.5663 -16.6570 -0.0000 0.0000 -84.0171 34.3549 39.9978 23.7189 -7.1250 0.0000 -0.0000 -2.5830 75.4311 -1.8505 -0.0000 -0.0000 0.0000 68.2291 -24.6156 -76.4671 -45.2595 50.8950 -22.4400 0.0000 -0.0000 -63.3387 -50.6402 18.9965 -21.6457 7.1250 -0.0000 -0.0000 -13.7895 -2.1878 -13.6592
0.00 0.00 0.00 1144.1800 268.0580 -1136.9700 0.0000 0.0000 0.0000 -17.4052 -6.8082 -16.1078 2.1345 9.1408 26.2368 1.8961 2.0872 -26.8431 0.0555 -1.5196 -4.1797 0.0000 0.0000 0.0000 18.1365 14.7790 -12.4149 -1.5924 -7.9598 22.5919 -0.0523 6.9689 -6.0491 -4.1784 -12.3942 37.1410 1.3558 1.2552 -9.8809 1.1378 1.4025 2.5480 0.6778 0.7141 8.2615 -6.0763 -0.2117 -5.6700 0.6366 -0.5911 29.8839 1.1488 -1.2657 10.5038 0.0000 0.0000 0.0000 5.4631 -48.2901 4.5672 46.5738 -51.5166 -23.4644 -0.0000 0.0000 -42.0195 -2.0143 39.9795 -1.2945 -7.1250 0.0000 -0.0000 -46.8043 63.8089 -23.8354 0.0000 0.0000 0.0000 -20.2652 44.7662 -12.6324 -49.9772 52.9863 -26.1559 0.0000 0.0000 8.1956 -18.3557 28.9889 -9.1351 7.1250 -0.0000 -0.0000 7.2006 0.0844 7.2688
0.00 0.00 0.00 1137.1300 267.8910 -1130.5100 0.0000 0.0000 0.0000 -17.5054 -6.0611 -16.1610 2.1392 9.1502 26.2662 1.8078 2.7149 -26.4981 0.1194 -2.2279 -6.1360 0.0000 0.0000 0.0000 18.1354 14.6286 -12.2654 -1.5747 -7.9176 22.4641 -0.0477 6.4199 -5.6458 -4.1560 -12.3652 37.0365 0.6701 0.5797 -9.4956 2.2608 0.4587 3.6800 2.1116 0.1696 9.2526 -6.4067 -0.2073 -13.5916 -0.0421 0.6126 30.7112 1.1151 -0.7789 12.4063 0.0000 0.0000 0.0000 -29.4244 -56.7605 36.0829 42.5033 -49.4850 -20.3224 -0.0000 0.0000 -28.8398 -9.3510 43.1784 -6.4289 -7.1250 0.0000 -0.0000 -58.2563 63.7859 -31.4981 0.0000 0.0000 0.0000 8.2571 60.3668 20.5606 -50.7424 53.2906 -26.7682 0.0000 0.0000 17.4956 -9.0384 28.9957 -4.4093 7.1250 -0.0000 -0.0000 12.6297 -1.2923 12.6552
0.00 0.00 0.00 1138.1100 267.8760 -1132.0500 0.0000 0.0000 0.0000 -17.6035 -5.9432 -15.3295 2.1085 9.0885 26.0725 1.8325 2.6727 -26.6514 0.1164 -2.1994 -6.0572 0.0000 0.0000 0.0000 18.3042 14.6424 -11.3755 -1.5470 -7.8508 22.2617 -0.0787 6.3619 -6.2846 -3.8043 -11.8954 35.3629 1.3798 1.2232 -9.5617 1.6735 1.2471 4.7179 1.2488 0.6073 10.4401 -4.8162 -1.0945 -18.6057 0.2783 -0.6791 30.7233 0.7724 -1.0465 13.5111 -0.0000 -0.0000 0.0000 -57.4585 -53.6824 59.2585 38.9312 -47.4238 -17.6481 -0.0000 0.0000 -19.6846 -5.5024 41.8577 -3.6779 -7.1250 0.0000 -0.0000 -52.8191 64.0796 -28.0473 -0.0000 -0.0000 0.0000 46.6550 55.3116 50.6585 -47.5119 51.9413 -24.2008 0.0000 0.0000 21.1677 -7.0629 29.2989 -3.4697 7.1250 -0.0000 -0.0000 13.7813 -1.2254 13.8941
0.00 0.00 0.00 1238.8300 265.5470 -1231.0000 0.0000 0.0000 0.0000 -17.5519 -7.1243 -13.7473 1.8682 8.5860 24.5087 1.7263 -0.4146 -24.7400 0.1065 -2.1039 -5.7929 0.0000 0.0000 0.0000 18.9295 16.4652 -7.4657 -1.2891 -7.1942 20.2921 -0.5600 9.3856 -13.9335 -4.1428 -12.3480 36.9745 1.4135 -0.5662 -10.6728 2.0282 -1.1284 1.9899 1.1546 -0.5435 8.1312 -4.6516 -1.0645 -14.5232 1.5894 -1.4507 29.8294 1.1372 -1.2221 12.2979 -0.0000 -0.0000 0.0000 -93.1729 0.8164 -7.4777 17.3973 -27.3785 -4.2684 -0.0000 0.0000 -20.4420 12.7154 30.7800 6.5868 -7.1250 0.0000 -0.0000 -21.6840 60.0615 -8.1984 -0.0000 -0.0000 0.0000 90.4409 -10.8902 -11.2638 -23.6235 34.7636 -7.4908 0.0000 0.0000 17.0214 -24.5218 27.8921 -12.0467 7.1250 -0.0000 -0.0000 3.4432 0.1616 3.4592
0.00 0.00 0.00 1250.7200 263.5800 -1241.2300 0.0000 0.0000 0.0000 -17.7940 -7.2119 -14.6773 1.8500 8.5464 24.3865 1.5633 -1.8219 -23.1298 0.0991 -2.0297 -5.5876 0.0000 0.0000 0.0000 18.5404 16.1059 -8.1504 -1.3724 -7.4138 20.9472 -0.6261 11.3286 -15.1291 -4.4939 -12.7902 38.5880 1.2909 -1.2766 -13.2973 0.8386 -1.9917 0.0594 -0.2300 -0.9492 7.5214 -4.2654 -1.0046 -4.5754 4.4601 -3.1371 28.9656 1.9403 -1.8384 10.0530 0.0000 -0.0000 0.0000 -80.5889 7.4692 -60.2432 26.2085 -37.4138 -9.0140 -0.0000 0.0000 -59.9234 31.9839 38.9342 21.4270 -7.1250 0.0000 -0.0000 -5.3846 73.5259 -3.6393 0.0000 -0.0000 0.0000 83.8792 -21.3553 -58.3672 -28.8100 39.8513 -10.6388 0.0000 -0.0000 -22.0808 -33.6706 17.8988 -11.5709 7.1250 -0.0000 -0.0000 -3.6445 -8.8048 -3.0500
0.00 0.00 0.00 1232.5700 266.5230 -1224.0600 0.0000 0.0000 0.0000 -17.6826 -7.8211 -12.2309 1.8498 8.5459 24.3848 2.0990 -0.3946 -27.3191 0.0664 -1.6627 -4.5743 0.0000 0.0000 0.0000 19.1508 14.3391 -7.9873 -1.4045 -7.4965 21.1950 -0.3091 10.1959 -11.4066 -3.8955 -12.0200 35.8028 0.2135 -0.3666 -14.5486 0.0144 -0.5548 0.1838 -0.2267 -0.2719 8.3771 -4.8206 -0.6711 7.2661 6.5066 -3.6776 25.1360 2.7685 -2.3026 6.6671 0.0000 0.0000 0.0000 -31.1374 10.4203 -56.7144 51.3019 -53.5073 -27.2173 -0.0000 0.0000 -79.9255 23.3932 39.9876 15.5358 -7.1250 0.0000 -0.0000 -19.4182 71.5665 -12.4231 0.0000 0.0000 0.0000 32.9460 -19.7663 -74.3289 -55.4290 54.9635 -30.5669 0.0000 -0.0000 -64.4798 -44.7443 20.3188 -18.9913 7.1250 -0.0000 -0.0000 -10.0226 -2.8070 -9.6710
0.00 0.00 0.00 1198.3300 267.2240 -1192.1600 0.0000 0.0000 0.0000 -17.1679 -7.5158 -10.8855 1.9814 8.8272 25.2562 2.3064 0.2086 -28.8451 0.0274 -1.0694 -2.9397 0.0000 0.0000 0.0000 20.1845 13.5719 -6.8366 -1.3598 -7.3812 20.8497 -0.2202 8.5685 -9.6077 -3.5193 -11.4917 33.9568 1.2408 0.4987 -12.4409 -0.0863 0.4768 1.6255 -0.6991 0.2925 8.7505 -6.5770 -0.5362 7.8740 6.5263 -3.1151 21.9448 3.0846 -2.0954 5.5235 -0.0000 0.0000 0.0000 2.0709 -5.7218 -42.5880 57.1348 -55.4968 -31.9682 -0.0000 0.0000 -64.3204 11.2713 37.5481 6.9251 -7.1250 0.0000 -0.0000 -30.1688 65.6665 -15.6879 -0.0000 0.0000 0.0000 -2.7600 -5.3630 -57.1909 -60.3447 56.4011 -34.6280 0.0000 -0.0000 -48.7495 -33.0193 19.7695 -12.3973 7.1250 -0.0000 -0.0000 -2.9463 -6.8028 -2.5800
0.00 0.00 0.00 1247.9600 258.8240 -1237.5200 0.0000 0.0000 0.0000 -15.1329 -13.5747 -15.3132 2.0603 8.9906 25.7658 1.7389 -1.0644 -24.6363 0.0919 -1.9551 -5.3815 0.0000 0.0000 0.0000 20.3727 12.9678 -9.8307 -1.2348 -7.0469 19.8544 -0.7641 9.8808 -16.0467 -3.9663 -12.1154 36.1415 5.0678 3.6739 -13.8297 1.6363 3.8602 0.7526 -0.2778 2.0315 8.8133 -10.7759 -5.5857 7.6706 6.3168 -9.4089 17.6670 3.5048 -5.2354 4.8814 0.0000 0.0000 0.0000 -30.9211 9.4033 -62.0234 36.9319 -46.1434 -16.1909 -0.0000 0.0000 -73.4448 22.8119 41.0515 15.4416 -7.1250 0.0000 -0.0000 -21.9364 72.3161 -14.4335 0.0000 0.0000 0.0000 79.3958 -36.1828 -51.9770 -19.6094 30.1689 -5.3337 0.0000 -0.0000 -16.4264 -39.9340 20.5744 -16.3933 7.1250 -0.0000 -0.0000 -7.0819 -4.0673 -6.6134
0.00 0.00 0.00 1275.4100 256.4310 -1264.4200 0.0000 0.0000 0.0000 -21.9425 -10.9212 -16.6799 1.4574 7.6302 21.5964 0.8134 -0.8106 -16.7888 0.1001 -2.0406 -5.6179 0.0000 0.0000 0.0000 12.9048 16.4116 -12.8229 -1.9749 -8.8135 25.2137 -1.3237 12.6083 -21.1111 -4.2019 -12.4243 37.2501 -0.7400 0.3397 -10.8105 2.9191 0.3163 0.8278 3.5538 0.0555 6.9328 -13.0597 -4.1411 3.1453 4.0729 -6.7545 21.1576 3.1250 -4.2323 6.5328 -0.0000 0.0000 0.0000 45.4359 -31.3479 -49.3888 35.7670 -45.3521 -15.3565 -0.0000 0.0000 -37.1506 15.9345 32.9357 8.8236 -7.1250 0.0000 -0.0000 -20.0502 62.8479 -8.8763 -0.0000 0.0000 0.0000 64.8491 -14.2650 -15.0512 -37.8411 46.7376 -16.8498 0.0000 -0.0000 -25.3755 -41.0667 26.4024 -21.1793 7.1250 -0.0000 -0.0000 -6.4683 3.1951 -6.8617
